<svg width="45ch" height="23em" xmlns="http://www.w3.org/2000/svg" xmlns:xlink="http://www.w3.org/1999/xlink" xml:space="preserve">
    <style>
        * {
            font-family: Courier, monospace;
            font-size: 14px;
        }
        tspan, text {
            font-variant-ligatures: none;
            dominant-baseline: central;
            white-space: pre;
            fill: #bbbbbb;
        }
        .bg {
            stroke-width: "0.5px";
        }
        .bold {
            font-weight: bold;
        }
        <!-- Background ANSI colors -->
        .ba0 { stroke: #000000; fill: #000000; }
        .ba3 { stroke: #bbbb00; fill: #bbbb00; }
        .ba4 { stroke: #0000bb; fill: #0000bb; }
        .ba7 { stroke: #bbbbbb; fill: #bbbbbb; }
        <!-- Foreground ANSI colors -->
        .fa0 { fill: #000000; }
        .fa1 { fill: #bb0000; }
        .fa4 { fill: #0000bb; }
        .fa7 { fill: #bbbbbb; }
    </style>
    <rect width="100%" height="100%" x="0" y="0" style="fill: #000000"/>
<g class="bg">
<rect x="5ch" y="0em" width="1ch" height="1em" class="ba7"/>
<rect x="6ch" y="0em" width="2ch" height="1em" class="ba0"/>
<rect x="20ch" y="0em" width="1ch" height="1em" class="ba4"/>
<rect x="27ch" y="0em" width="3ch" height="1em" class="ba4"/>
<rect x="3ch" y="1em" width="2ch" height="1em" class="ba7"/>
<rect x="10ch" y="1em" width="11ch" height="1em" class="ba4"/>
<rect x="22ch" y="1em" width="2ch" height="1em" class="ba4"/>
<rect x="26ch" y="1em" width="1ch" height="1em" class="ba4"/>
<rect x="28ch" y="1em" width="2ch" height="1em" class="ba4"/>
<rect x="40ch" y="1em" width="2ch" height="1em" class="ba7"/>
<rect x="1ch" y="2em" width="2ch" height="1em" class="ba7"/>
<rect x="7ch" y="2em" width="17ch" height="1em" class="ba4"/>
<rect x="26ch" y="2em" width="1ch" height="1em" class="ba4"/>
<rect x="42ch" y="2em" width="2ch" height="1em" class="ba7"/>
<rect x="0ch" y="3em" width="1ch" height="1em" class="ba7"/>
<rect x="6ch" y="3em" width="4ch" height="1em" class="ba4"/>
<rect x="13ch" y="3em" width="2ch" height="1em" class="ba4"/>
<rect x="16ch" y="3em" width="2ch" height="1em" class="ba4"/>
<rect x="19ch" y="3em" width="7ch" height="1em" class="ba4"/>
<rect x="37ch" y="3em" width="2ch" height="1em" class="ba4"/>
<rect x="39ch" y="3em" width="5ch" height="1em" class="ba0"/>
<rect x="44ch" y="3em" width="1ch" height="1em" class="ba7"/>
<rect x="7ch" y="4em" width="2ch" height="1em" class="ba4"/>
<rect x="14ch" y="4em" width="1ch" height="1em" class="ba4"/>
<rect x="16ch" y="4em" width="1ch" height="1em" class="ba4"/>
<rect x="19ch" y="4em" width="1ch" height="1em" class="ba4"/>
<rect x="23ch" y="4em" width="5ch" height="1em" class="ba4"/>
<rect x="35ch" y="4em" width="3ch" height="1em" class="ba4"/>
<rect x="38ch" y="4em" width="7ch" height="1em" class="ba0"/>
<rect x="0ch" y="5em" width="7ch" height="1em" class="ba0"/>
<rect x="7ch" y="5em" width="2ch" height="1em" class="ba4"/>
<rect x="14ch" y="5em" width="1ch" height="1em" class="ba4"/>
<rect x="26ch" y="5em" width="3ch" height="1em" class="ba4"/>
<rect x="30ch" y="5em" width="6ch" height="1em" class="ba4"/>
<rect x="36ch" y="5em" width="9ch" height="1em" class="ba0"/>
<rect x="0ch" y="6em" width="7ch" height="1em" class="ba0"/>
<rect x="7ch" y="6em" width="3ch" height="1em" class="ba4"/>
<rect x="28ch" y="6em" width="4ch" height="1em" class="ba4"/>
<rect x="32ch" y="6em" width="13ch" height="1em" class="ba0"/>
<rect x="0ch" y="7em" width="7ch" height="1em" class="ba0"/>
<rect x="7ch" y="7em" width="3ch" height="1em" class="ba4"/>
<rect x="7ch" y="8em" width="3ch" height="1em" class="ba4"/>
<rect x="8ch" y="9em" width="2ch" height="1em" class="ba4"/>
<rect x="41ch" y="10em" width="3ch" height="1em" class="ba4"/>
<rect x="44ch" y="10em" width="1ch" height="1em" class="ba0"/>
<rect x="0ch" y="11em" width="6ch" height="1em" class="ba0"/>
<rect x="15ch" y="11em" width="1ch" height="1em" class="ba4"/>
<rect x="16ch" y="11em" width="6ch" height="1em" class="ba0"/>
<rect x="14ch" y="14em" width="1ch" height="1em" class="ba4"/>
<rect x="35ch" y="14em" width="1ch" height="1em" class="ba4"/>
<rect x="37ch" y="14em" width="1ch" height="1em" class="ba4"/>
<rect x="0ch" y="15em" width="4ch" height="1em" class="ba4"/>
<rect x="4ch" y="15em" width="11ch" height="1em" class="ba0"/>
<rect x="15ch" y="15em" width="5ch" height="1em" class="ba4"/>
<rect x="20ch" y="15em" width="2ch" height="1em" class="ba0"/>
<rect x="22ch" y="15em" width="1ch" height="1em" class="ba4"/>
<rect x="23ch" y="15em" width="12ch" height="1em" class="ba0"/>
<rect x="35ch" y="15em" width="3ch" height="1em" class="ba4"/>
<rect x="39ch" y="15em" width="1ch" height="1em" class="ba4"/>
<rect x="16ch" y="16em" width="1ch" height="1em" class="ba4"/>
<rect x="17ch" y="16em" width="1ch" height="1em" class="ba0"/>
<rect x="18ch" y="16em" width="1ch" height="1em" class="ba4"/>
<rect x="19ch" y="16em" width="1ch" height="1em" class="ba0"/>
<rect x="20ch" y="16em" width="3ch" height="1em" class="ba4"/>
<rect x="23ch" y="16em" width="11ch" height="1em" class="ba0"/>
<rect x="34ch" y="16em" width="1ch" height="1em" class="ba4"/>
<rect x="36ch" y="16em" width="2ch" height="1em" class="ba4"/>
<rect x="41ch" y="16em" width="1ch" height="1em" class="ba4"/>
<rect x="5ch" y="17em" width="3ch" height="1em" class="ba4"/>
<rect x="13ch" y="17em" width="3ch" height="1em" class="ba4"/>
<rect x="16ch" y="17em" width="2ch" height="1em" class="ba0"/>
<rect x="18ch" y="17em" width="1ch" height="1em" class="ba4"/>
<rect x="19ch" y="17em" width="1ch" height="1em" class="ba0"/>
<rect x="20ch" y="17em" width="1ch" height="1em" class="ba4"/>
<rect x="21ch" y="17em" width="1ch" height="1em" class="ba0"/>
<rect x="22ch" y="17em" width="1ch" height="1em" class="ba4"/>
<rect x="32ch" y="17em" width="1ch" height="1em" class="ba4"/>
<rect x="34ch" y="17em" width="1ch" height="1em" class="ba4"/>
<rect x="36ch" y="17em" width="2ch" height="1em" class="ba4"/>
<rect x="40ch" y="17em" width="1ch" height="1em" class="ba4"/>
<rect x="7ch" y="18em" width="1ch" height="1em" class="ba4"/>
<rect x="10ch" y="18em" width="1ch" height="1em" class="ba4"/>
<rect x="12ch" y="18em" width="2ch" height="1em" class="ba4"/>
<rect x="14ch" y="18em" width="2ch" height="1em" class="ba0"/>
<rect x="16ch" y="18em" width="13ch" height="1em" class="ba4"/>
<rect x="33ch" y="18em" width="5ch" height="1em" class="ba4"/>
<rect x="1ch" y="19em" width="2ch" height="1em" class="ba7"/>
<rect x="10ch" y="19em" width="2ch" height="1em" class="ba4"/>
<rect x="12ch" y="19em" width="4ch" height="1em" class="ba0"/>
<rect x="16ch" y="19em" width="1ch" height="1em" class="ba4"/>
<rect x="17ch" y="19em" width="10ch" height="1em" class="ba0"/>
<rect x="27ch" y="19em" width="10ch" height="1em" class="ba4"/>
<rect x="37ch" y="19em" width="5ch" height="1em" class="ba0"/>
<rect x="42ch" y="19em" width="2ch" height="1em" class="ba7"/>
<rect x="3ch" y="20em" width="2ch" height="1em" class="ba7"/>
<rect x="8ch" y="20em" width="2ch" height="1em" class="ba4"/>
<rect x="10ch" y="20em" width="2ch" height="1em" class="ba0"/>
<rect x="12ch" y="20em" width="21ch" height="1em" class="ba4"/>
<rect x="33ch" y="20em" width="7ch" height="1em" class="ba0"/>
<rect x="40ch" y="20em" width="2ch" height="1em" class="ba7"/>
<rect x="5ch" y="21em" width="2ch" height="1em" class="ba7"/>
<rect x="7ch" y="21em" width="1ch" height="1em" class="ba0"/>
<rect x="15ch" y="21em" width="16ch" height="1em" class="ba4"/>
<rect x="31ch" y="21em" width="7ch" height="1em" class="ba0"/>
<rect x="38ch" y="21em" width="2ch" height="1em" class="ba7"/>
<rect x="4ch" y="22em" width="1ch" height="1em" class="ba3"/>
<rect x="5ch" y="22em" width="1ch" height="1em" class="ba0"/>
<rect x="8ch" y="22em" width="2ch" height="1em" class="ba7"/>
<rect x="10ch" y="22em" width="1ch" height="1em" class="ba0"/>
<rect x="20ch" y="22em" width="3ch" height="1em" class="ba4"/>
<rect x="23ch" y="22em" width="12ch" height="1em" class="ba0"/>
<rect x="35ch" y="22em" width="2ch" height="1em" class="ba7"/>
<rect x="40ch" y="22em" width="1ch" height="1em" class="ba3"/>
</g>
<text x="0ch" y="0.5em"><tspan x="0ch"> </tspan><tspan x="1ch"> </tspan><tspan x="2ch"> </tspan><tspan x="3ch"> </tspan><tspan x="4ch">▄</tspan><tspan x="5ch" class="bold">▄</tspan><tspan x="6ch" class="bold">▒</tspan><tspan x="7ch" class="bold">░</tspan><tspan x="8ch"> </tspan><tspan x="9ch"> </tspan><tspan x="10ch" class="fa4">▄</tspan><tspan x="11ch" class="fa4">▄</tspan><tspan x="12ch" class="fa4">█</tspan><tspan x="13ch" class="fa4">█</tspan><tspan x="14ch" class="fa4">█</tspan><tspan x="15ch" class="fa4">█</tspan><tspan x="16ch" class="fa4">█</tspan><tspan x="17ch" class="fa4">█</tspan><tspan x="18ch" class="fa4">█</tspan><tspan x="19ch" class="fa4">█</tspan><tspan x="20ch" class="bold fa7"> </tspan><tspan x="21ch" class="fa4">█</tspan><tspan x="22ch" class="fa4">█</tspan><tspan x="23ch" class="fa4">█</tspan><tspan x="24ch" class="fa4">█</tspan><tspan x="25ch" class="fa4">█</tspan><tspan x="26ch" class="fa4">█</tspan><tspan x="27ch" class="bold fa7">▄</tspan><tspan x="28ch" class="bold fa7"> </tspan><tspan x="29ch" class="bold fa7"> </tspan><tspan x="30ch" class="fa4">█</tspan><tspan x="31ch" class="fa4">█</tspan><tspan x="32ch" class="fa4">█</tspan><tspan x="33ch" class="fa4">▄</tspan><tspan x="34ch" class="fa4">▄</tspan><tspan x="35ch" class="fa7"> </tspan><tspan x="36ch" class="fa7"> </tspan><tspan x="37ch" class="bold fa7">▀</tspan><tspan x="38ch" class="bold fa7">▓</tspan><tspan x="39ch" class="bold fa7">▓</tspan><tspan x="40ch" class="bold fa7">░</tspan></text>
<text x="0ch" y="1.5em"><tspan x="0ch"> </tspan><tspan x="1ch"> </tspan><tspan x="2ch">▄</tspan><tspan x="3ch" class="bold">▄</tspan><tspan x="4ch" class="bold">▀</tspan><tspan x="5ch">▀</tspan><tspan x="6ch"> </tspan><tspan x="7ch" class="fa4">▄</tspan><tspan x="8ch" class="fa4">█</tspan><tspan x="9ch" class="fa4">█</tspan><tspan x="10ch" class="bold fa7"> </tspan><tspan x="11ch" class="bold fa7"> </tspan><tspan x="12ch" class="bold fa7"> </tspan><tspan x="13ch" class="bold fa7"> </tspan><tspan x="14ch" class="bold fa7"> </tspan><tspan x="15ch" class="bold fa7"> </tspan><tspan x="16ch" class="bold fa7"> </tspan><tspan x="17ch" class="bold fa7"> </tspan><tspan x="18ch" class="bold fa7"> </tspan><tspan x="19ch" class="bold fa7"> </tspan><tspan x="20ch" class="bold fa7"> </tspan><tspan x="21ch" class="fa4">█</tspan><tspan x="22ch" class="bold fa7">▀</tspan><tspan x="23ch" class="bold fa7"> </tspan><tspan x="24ch" class="fa4">█</tspan><tspan x="25ch" class="bold fa7">■</tspan><tspan x="26ch" class="bold fa7"> </tspan><tspan x="27ch" class="fa4">█</tspan><tspan x="28ch" class="bold fa7"> </tspan><tspan x="29ch" class="bold fa7">■</tspan><tspan x="30ch" class="fa4">█</tspan><tspan x="31ch" class="fa4">█</tspan><tspan x="32ch" class="fa4">█</tspan><tspan x="33ch" class="fa4">█</tspan><tspan x="34ch" class="fa4">█</tspan><tspan x="35ch" class="fa4">█</tspan><tspan x="36ch" class="fa4">█</tspan><tspan x="37ch" class="fa4">▄</tspan><tspan x="38ch" class="fa7"> </tspan><tspan x="39ch" class="fa7">▀</tspan><tspan x="40ch" class="bold fa7">▀</tspan><tspan x="41ch" class="bold fa7">▄</tspan><tspan x="42ch">▄</tspan></text>
<text x="0ch" y="2.5em"><tspan x="0ch">▄</tspan><tspan x="1ch" class="bold">▄</tspan><tspan x="2ch" class="bold">▀</tspan><tspan x="3ch">▀</tspan><tspan x="4ch"> </tspan><tspan x="5ch" class="fa4">▄</tspan><tspan x="6ch" class="fa4">█</tspan><tspan x="7ch" class="bold fa7"> </tspan><tspan x="8ch" class="bold fa7"> </tspan><tspan x="9ch" class="bold fa7">▄</tspan><tspan x="10ch" class="bold fa7">■</tspan><tspan x="11ch" class="bold fa7">■</tspan><tspan x="12ch" class="bold fa7">▀</tspan><tspan x="13ch" class="bold fa7">▀</tspan><tspan x="14ch" class="bold fa7">▀</tspan><tspan x="15ch" class="bold fa7">▀</tspan><tspan x="16ch" class="bold fa7">▄</tspan><tspan x="17ch" class="bold fa7">▄</tspan><tspan x="18ch" class="bold fa7">▄</tspan><tspan x="19ch" class="bold fa7"> </tspan><tspan x="20ch" class="bold fa7"> </tspan><tspan x="21ch" class="bold fa7"> </tspan><tspan x="22ch" class="bold fa7"> </tspan><tspan x="23ch" class="bold fa7"> </tspan><tspan x="24ch" class="fa4">█</tspan><tspan x="25ch" class="fa4">█</tspan><tspan x="26ch" class="bold fa7">▄</tspan><tspan x="27ch" class="fa4">█</tspan><tspan x="28ch" class="fa4">█</tspan><tspan x="29ch" class="fa4">█</tspan><tspan x="30ch" class="fa4">█</tspan><tspan x="31ch" class="fa4">█</tspan><tspan x="32ch" class="fa4">█</tspan><tspan x="33ch" class="fa4">█</tspan><tspan x="34ch" class="fa4">█</tspan><tspan x="35ch" class="fa4">█</tspan><tspan x="36ch" class="fa4">█</tspan><tspan x="37ch" class="fa4">█</tspan><tspan x="38ch" class="fa4">█</tspan><tspan x="39ch" class="fa1">▄</tspan><tspan x="40ch" class="fa7"> </tspan><tspan x="41ch" class="fa7">▀</tspan><tspan x="42ch" class="bold fa7">▀</tspan><tspan x="43ch" class="bold fa7">▄</tspan><tspan x="44ch">▄</tspan></text>
<text x="0ch" y="3.5em"><tspan x="0ch" class="bold">▀</tspan><tspan x="1ch">▀</tspan><tspan x="2ch"> </tspan><tspan x="3ch" class="fa4">▄</tspan><tspan x="4ch" class="fa4">█</tspan><tspan x="5ch" class="fa4">█</tspan><tspan x="6ch" class="bold fa7"> </tspan><tspan x="7ch" class="bold fa7">▄</tspan><tspan x="8ch" class="bold fa7">▀</tspan><tspan x="9ch" class="bold fa7"> </tspan><tspan x="10ch" class="fa4">█</tspan><tspan x="11ch" class="fa4">█</tspan><tspan x="12ch" class="fa4">█</tspan><tspan x="13ch" class="bold fa7"> </tspan><tspan x="14ch" class="bold fa7"> </tspan><tspan x="15ch" class="fa4">█</tspan><tspan x="16ch" class="fa7">▀</tspan><tspan x="17ch" class="bold fa7"> </tspan><tspan x="18ch" class="fa4">█</tspan><tspan x="19ch" class="bold fa7">▀</tspan><tspan x="20ch" class="bold fa7">▀</tspan><tspan x="21ch" class="bold fa7">▄</tspan><tspan x="22ch" class="bold fa7">▄</tspan><tspan x="23ch" class="bold fa7"> </tspan><tspan x="24ch" class="bold fa7"> </tspan><tspan x="25ch" class="bold fa7"> </tspan><tspan x="26ch" class="fa4">█</tspan><tspan x="27ch" class="fa4">█</tspan><tspan x="28ch" class="fa4">█</tspan><tspan x="29ch" class="fa4">█</tspan><tspan x="30ch" class="fa4">█</tspan><tspan x="31ch" class="fa4">█</tspan><tspan x="32ch" class="fa4">█</tspan><tspan x="33ch" class="fa4">█</tspan><tspan x="34ch" class="fa4">█</tspan><tspan x="35ch" class="fa4">█</tspan><tspan x="36ch" class="fa4">█</tspan><tspan x="37ch" class="fa1">▄</tspan><tspan x="38ch" class="fa1">█</tspan><tspan x="39ch" class="fa1">▌</tspan><tspan x="40ch" class="fa4">█</tspan><tspan x="41ch" class="fa4">▄</tspan><tspan x="42ch" class="fa7"> </tspan><tspan x="43ch" class="fa7">▀</tspan><tspan x="44ch" class="bold fa7">▀</tspan></text>
<text x="0ch" y="4.5em"><tspan x="0ch"> </tspan><tspan x="1ch" class="fa4">▄</tspan><tspan x="2ch" class="fa4">█</tspan><tspan x="3ch" class="fa4">█</tspan><tspan x="4ch" class="fa4">█</tspan><tspan x="5ch" class="fa4">█</tspan><tspan x="6ch" class="fa4">▌</tspan><tspan x="7ch" class="bold fa7">▌</tspan><tspan x="8ch" class="bold fa7"> </tspan><tspan x="9ch" class="fa4">█</tspan><tspan x="10ch" class="fa4">█</tspan><tspan x="11ch" class="fa4">█</tspan><tspan x="12ch" class="fa4">█</tspan><tspan x="13ch" class="fa4">█</tspan><tspan x="14ch" class="bold fa7">▀</tspan><tspan x="15ch" class="fa4">█</tspan><tspan x="16ch" class="bold fa7">■</tspan><tspan x="17ch" class="fa4">█</tspan><tspan x="18ch" class="fa4">█</tspan><tspan x="19ch" class="bold fa7">■</tspan><tspan x="20ch" class="fa4">█</tspan><tspan x="21ch" class="fa4">█</tspan><tspan x="22ch" class="fa4">█</tspan><tspan x="23ch" class="bold fa7">▀</tspan><tspan x="24ch" class="bold fa7">▄</tspan><tspan x="25ch" class="bold fa7"> </tspan><tspan x="26ch" class="bold fa7"> </tspan><tspan x="27ch" class="bold fa7"> </tspan><tspan x="28ch" class="fa4">█</tspan><tspan x="29ch" class="fa4">█</tspan><tspan x="30ch" class="fa4">█</tspan><tspan x="31ch" class="fa4">█</tspan><tspan x="32ch" class="fa4">█</tspan><tspan x="33ch" class="fa4">█</tspan><tspan x="34ch" class="fa4">█</tspan><tspan x="35ch" class="fa1">▄</tspan><tspan x="36ch" class="fa1">█</tspan><tspan x="37ch" class="fa1">█</tspan><tspan x="38ch" class="fa1">▀</tspan><tspan x="39ch" class="fa4">█</tspan><tspan x="40ch" class="fa4">█</tspan><tspan x="41ch" class="fa4">█</tspan><tspan x="42ch" class="fa4">▓</tspan><tspan x="43ch" class="fa4">░</tspan></text>
<text x="0ch" y="5.5em"><tspan x="0ch" class="fa4">▐</tspan><tspan x="1ch" class="fa4">█</tspan><tspan x="2ch" class="fa4">█</tspan><tspan x="3ch" class="fa4">█</tspan><tspan x="4ch" class="fa4">█</tspan><tspan x="5ch" class="fa4">█</tspan><tspan x="6ch" class="bold fa7">▐</tspan><tspan x="7ch" class="bold fa7">▌</tspan><tspan x="8ch" class="bold fa7"> </tspan><tspan x="9ch" class="fa4">█</tspan><tspan x="10ch" class="fa4">█</tspan><tspan x="11ch" class="fa4">█</tspan><tspan x="12ch" class="fa4">█</tspan><tspan x="13ch" class="fa4">█</tspan><tspan x="14ch" class="bold fa7"> </tspan><tspan x="15ch" class="fa4">█</tspan><tspan x="16ch" class="fa4">█</tspan><tspan x="17ch" class="fa4">█</tspan><tspan x="18ch" class="fa4">█</tspan><tspan x="19ch" class="fa4">█</tspan><tspan x="20ch" class="fa4">█</tspan><tspan x="21ch" class="fa4">█</tspan><tspan x="22ch" class="fa4">█</tspan><tspan x="23ch" class="fa4">█</tspan><tspan x="24ch" class="fa4">█</tspan><tspan x="25ch" class="bold fa7">▀</tspan><tspan x="26ch" class="bold fa7">▄</tspan><tspan x="27ch" class="bold fa7"> </tspan><tspan x="28ch" class="bold fa7"> </tspan><tspan x="29ch" class="fa4">█</tspan><tspan x="30ch" class="fa1"> </tspan><tspan x="31ch" class="fa1"> </tspan><tspan x="32ch" class="fa1">▄</tspan><tspan x="33ch" class="fa1">█</tspan><tspan x="34ch" class="fa1">█</tspan><tspan x="35ch" class="fa1">█</tspan><tspan x="36ch" class="fa1">▓</tspan><tspan x="37ch" class="fa4">▄</tspan><tspan x="38ch" class="fa4">█</tspan><tspan x="39ch" class="fa4">█</tspan><tspan x="40ch" class="fa4">█</tspan><tspan x="41ch" class="fa4">█</tspan><tspan x="42ch" class="fa4">█</tspan><tspan x="43ch" class="fa4">█</tspan><tspan x="44ch" class="fa4">▄</tspan></text>
<text x="0ch" y="6.5em"><tspan x="0ch" class="fa4">█</tspan><tspan x="1ch" class="fa4">█</tspan><tspan x="2ch" class="fa4">█</tspan><tspan x="3ch" class="fa4">█</tspan><tspan x="4ch" class="fa4">█</tspan><tspan x="5ch" class="fa4">█</tspan><tspan x="6ch" class="bold fa7">▐</tspan><tspan x="7ch" class="bold fa7">▌</tspan><tspan x="8ch" class="bold fa7"> </tspan><tspan x="9ch" class="bold fa7"> </tspan><tspan x="10ch" class="fa4">█</tspan><tspan x="11ch" class="fa4">█</tspan><tspan x="12ch" class="fa4">█</tspan><tspan x="13ch" class="fa4">█</tspan><tspan x="14ch" class="fa4">█</tspan><tspan x="15ch" class="fa4">█</tspan><tspan x="16ch" class="fa4">█</tspan><tspan x="17ch" class="fa4">█</tspan><tspan x="18ch" class="fa4">█</tspan><tspan x="19ch" class="fa4">█</tspan><tspan x="20ch" class="fa4">█</tspan><tspan x="21ch" class="fa4">█</tspan><tspan x="22ch" class="fa4">█</tspan><tspan x="23ch" class="fa4">█</tspan><tspan x="24ch" class="fa4">█</tspan><tspan x="25ch" class="fa4">█</tspan><tspan x="26ch" class="fa4">▄</tspan><tspan x="27ch" class="bold fa7">▀</tspan><tspan x="28ch" class="bold fa7">▄</tspan><tspan x="29ch" class="fa1">▄</tspan><tspan x="30ch" class="fa1">█</tspan><tspan x="31ch" class="fa1">█</tspan><tspan x="32ch" class="fa1">▀</tspan><tspan x="33ch" class="fa1">▓</tspan><tspan x="34ch" class="fa1">█</tspan><tspan x="35ch" class="fa1">▀</tspan><tspan x="36ch" class="fa4">▄</tspan><tspan x="37ch" class="fa4">█</tspan><tspan x="38ch" class="fa4">█</tspan><tspan x="39ch" class="fa4">█</tspan><tspan x="40ch" class="fa4">█</tspan><tspan x="41ch" class="fa4">█</tspan><tspan x="42ch" class="fa4">█</tspan><tspan x="43ch" class="fa4">█</tspan><tspan x="44ch" class="fa4">█</tspan></text>
<text x="0ch" y="7.5em"><tspan x="0ch" class="fa4">█</tspan><tspan x="1ch" class="fa4">█</tspan><tspan x="2ch" class="fa4">▀</tspan><tspan x="3ch" class="fa4">▀</tspan><tspan x="4ch" class="fa4">▀</tspan><tspan x="5ch" class="fa4">▀</tspan><tspan x="6ch" class="fa4">▀</tspan><tspan x="7ch" class="bold fa7">█</tspan><tspan x="8ch" class="bold fa7"> </tspan><tspan x="9ch" class="bold fa7"> </tspan><tspan x="10ch" class="fa4">█</tspan><tspan x="11ch" class="fa4">█</tspan><tspan x="12ch" class="fa4">█</tspan><tspan x="13ch" class="fa4">█</tspan><tspan x="14ch" class="fa4">▀</tspan><tspan x="15ch" class="fa4">▀</tspan><tspan x="16ch" class="fa4">▀</tspan><tspan x="17ch" class="fa4">▀</tspan><tspan x="18ch" class="fa4">█</tspan><tspan x="19ch" class="fa4">█</tspan><tspan x="20ch" class="fa4">█</tspan><tspan x="21ch" class="fa4">▀</tspan><tspan x="22ch" class="fa4">▀</tspan><tspan x="23ch" class="fa4">▀</tspan><tspan x="24ch" class="fa4">▀</tspan><tspan x="25ch" class="fa4">▀</tspan><tspan x="26ch" class="fa4">▀</tspan><tspan x="27ch" class="fa1">▀</tspan><tspan x="28ch" class="fa1">▀</tspan><tspan x="29ch" class="fa1">▀</tspan><tspan x="30ch" class="fa1"> </tspan><tspan x="31ch" class="fa1">■</tspan><tspan x="32ch" class="fa1">█</tspan><tspan x="33ch" class="fa1">▀</tspan><tspan x="34ch" class="fa1"> </tspan><tspan x="35ch" class="fa4">▀</tspan><tspan x="36ch" class="fa4">▀</tspan><tspan x="37ch" class="fa4">▀</tspan><tspan x="38ch" class="fa4">█</tspan><tspan x="39ch" class="fa4">█</tspan><tspan x="40ch" class="fa4">█</tspan><tspan x="41ch" class="fa4">█</tspan><tspan x="42ch" class="fa4">█</tspan><tspan x="43ch" class="fa4">█</tspan><tspan x="44ch" class="fa4">█</tspan></text>
<text x="0ch" y="8.5em"><tspan x="0ch" class="fa4">█</tspan><tspan x="1ch" class="fa4">█</tspan><tspan x="2ch" class="bold fa7"> </tspan><tspan x="3ch" class="bold fa7">█</tspan><tspan x="4ch" class="bold fa7">█</tspan><tspan x="5ch" class="bold fa7">▌</tspan><tspan x="6ch" class="fa4">▓</tspan><tspan x="7ch" class="bold fa7">▐</tspan><tspan x="8ch" class="bold fa7">▌</tspan><tspan x="9ch" class="bold fa7"> </tspan><tspan x="10ch" class="fa4">█</tspan><tspan x="11ch" class="fa4">█</tspan><tspan x="12ch" class="fa4">▀</tspan><tspan x="13ch" class="bold fa7"> </tspan><tspan x="14ch" class="bold fa7">▄</tspan><tspan x="15ch" class="bold fa7">█</tspan><tspan x="16ch" class="bold fa7">█</tspan><tspan x="17ch" class="bold fa7">▄</tspan><tspan x="18ch" class="bold fa7"> </tspan><tspan x="19ch" class="fa4">▓</tspan><tspan x="20ch" class="fa4">▓</tspan><tspan x="21ch" class="bold fa7"> </tspan><tspan x="22ch" class="bold fa7">█</tspan><tspan x="23ch" class="bold fa7">█</tspan><tspan x="24ch" class="bold fa7">█</tspan><tspan x="25ch" class="bold fa7">█</tspan><tspan x="26ch" class="bold fa7">█</tspan><tspan x="27ch" class="bold fa7">█</tspan><tspan x="28ch" class="bold fa7">█</tspan><tspan x="29ch" class="bold fa7">█</tspan><tspan x="30ch" class="bold fa7">▄</tspan><tspan x="31ch" class="bold fa7"> </tspan><tspan x="32ch" class="fa4">▒</tspan><tspan x="33ch" class="bold fa7"> </tspan><tspan x="34ch" class="bold fa7">▄</tspan><tspan x="35ch" class="bold fa7">█</tspan><tspan x="36ch" class="bold fa7">█</tspan><tspan x="37ch" class="bold fa7">▄</tspan><tspan x="38ch" class="fa4"> </tspan><tspan x="39ch" class="fa4">▀</tspan><tspan x="40ch" class="fa4">█</tspan><tspan x="41ch" class="fa4">█</tspan><tspan x="42ch" class="fa4">█</tspan><tspan x="43ch" class="fa4">█</tspan><tspan x="44ch" class="fa4">█</tspan></text>
<text x="0ch" y="9.5em"><tspan x="0ch" class="fa4">█</tspan><tspan x="1ch" class="fa4">█</tspan><tspan x="2ch" class="bold fa7"> </tspan><tspan x="3ch" class="bold fa7">█</tspan><tspan x="4ch" class="bold fa7">█</tspan><tspan x="5ch" class="bold fa7">▌</tspan><tspan x="6ch" class="fa4">▓</tspan><tspan x="7ch" class="fa4">█</tspan><tspan x="8ch" class="bold fa7">▐</tspan><tspan x="9ch" class="bold fa7">▌</tspan><tspan x="10ch" class="fa4">█</tspan><tspan x="11ch" class="fa4">▌</tspan><tspan x="12ch" class="bold fa7"> </tspan><tspan x="13ch" class="bold fa7">█</tspan><tspan x="14ch" class="bold fa7">█</tspan><tspan x="15ch" class="bold fa7">▀</tspan><tspan x="16ch" class="bold fa7">▀</tspan><tspan x="17ch" class="bold fa7">█</tspan><tspan x="18ch" class="bold fa7">█</tspan><tspan x="19ch" class="bold fa7"> </tspan><tspan x="20ch" class="bold fa7"> </tspan><tspan x="21ch" class="fa1">▄</tspan><tspan x="22ch" class="fa4">▒</tspan><tspan x="23ch" class="fa4">▒</tspan><tspan x="24ch" class="fa4">▒</tspan><tspan x="25ch" class="fa4">▒</tspan><tspan x="26ch" class="bold fa7"> </tspan><tspan x="27ch" class="bold fa7"> </tspan><tspan x="28ch" class="bold fa7">▄</tspan><tspan x="29ch" class="bold fa7">▓</tspan><tspan x="30ch" class="bold fa7">▓</tspan><tspan x="31ch" class="bold fa7"> </tspan><tspan x="32ch" class="bold fa7"> </tspan><tspan x="33ch" class="bold fa7">█</tspan><tspan x="34ch" class="bold fa7">█</tspan><tspan x="35ch" class="bold fa7">▀</tspan><tspan x="36ch" class="bold fa7">▀</tspan><tspan x="37ch" class="bold fa7">█</tspan><tspan x="38ch" class="bold fa7">█</tspan><tspan x="39ch"> </tspan><tspan x="40ch" class="fa4">▐</tspan><tspan x="41ch" class="fa4">█</tspan><tspan x="42ch" class="fa4">█</tspan><tspan x="43ch" class="fa4">█</tspan><tspan x="44ch" class="fa4">█</tspan></text>
<text x="0ch" y="10.5em"><tspan x="0ch" class="fa4">█</tspan><tspan x="1ch" class="fa4">█</tspan><tspan x="2ch" class="bold fa7"> </tspan><tspan x="3ch" class="bold fa7">█</tspan><tspan x="4ch" class="bold fa7">█</tspan><tspan x="5ch" class="bold fa7">▌</tspan><tspan x="6ch" class="fa4">▓</tspan><tspan x="7ch" class="fa4">█</tspan><tspan x="8ch" class="fa4">█</tspan><tspan x="9ch" class="bold fa7">▐</tspan><tspan x="10ch" class="bold fa7">▌</tspan><tspan x="11ch" class="fa4"> </tspan><tspan x="12ch" class="bold fa7">█</tspan><tspan x="13ch" class="bold fa7">█</tspan><tspan x="14ch" class="bold fa7">▌</tspan><tspan x="15ch" class="fa4">░</tspan><tspan x="16ch" class="fa4">░</tspan><tspan x="17ch" class="bold fa7">▐</tspan><tspan x="18ch" class="bold fa7">█</tspan><tspan x="19ch" class="bold fa7">█</tspan><tspan x="20ch" class="bold fa7"> </tspan><tspan x="21ch" class="fa4">▓</tspan><tspan x="22ch" class="fa4">▓</tspan><tspan x="23ch" class="fa4">▓</tspan><tspan x="24ch" class="fa4">▀</tspan><tspan x="25ch" class="bold fa7"> </tspan><tspan x="26ch" class="bold fa7">▄</tspan><tspan x="27ch" class="bold fa7">█</tspan><tspan x="28ch" class="bold fa7">█</tspan><tspan x="29ch" class="bold fa7">▀</tspan><tspan x="30ch" class="bold fa7"> </tspan><tspan x="31ch" class="bold fa7"> </tspan><tspan x="32ch" class="bold fa7">█</tspan><tspan x="33ch" class="bold fa7">█</tspan><tspan x="34ch" class="bold fa7">▌</tspan><tspan x="35ch" class="fa4">░</tspan><tspan x="36ch" class="fa4">░</tspan><tspan x="37ch" class="bold fa7">▐</tspan><tspan x="38ch" class="bold fa7">█</tspan><tspan x="39ch" class="bold fa7">█</tspan><tspan x="40ch"> </tspan><tspan x="41ch" class="fa0">r</tspan><tspan x="42ch" class="fa0">u</tspan><tspan x="43ch" class="fa0">s</tspan><tspan x="44ch" class="fa4">█</tspan></text>
<text x="0ch" y="11.5em"><tspan x="0ch" class="fa4">█</tspan><tspan x="1ch" class="fa4">█</tspan><tspan x="2ch" class="bold fa7"> </tspan><tspan x="3ch" class="bold fa7">█</tspan><tspan x="4ch" class="bold fa7">█</tspan><tspan x="5ch" class="bold fa7">▌</tspan><tspan x="6ch" class="fa4">▓</tspan><tspan x="7ch" class="fa4">█</tspan><tspan x="8ch" class="fa4">█</tspan><tspan x="9ch" class="fa4">▌</tspan><tspan x="10ch" class="bold fa7">▓</tspan><tspan x="11ch" class="bold fa7">▐</tspan><tspan x="12ch" class="bold fa7">█</tspan><tspan x="13ch" class="bold fa7">█</tspan><tspan x="14ch" class="bold fa7"> </tspan><tspan x="15ch" class="fa1">▄</tspan><tspan x="16ch" class="fa1">■</tspan><tspan x="17ch" class="bold fa7"> </tspan><tspan x="18ch" class="bold fa7">█</tspan><tspan x="19ch" class="bold fa7">█</tspan><tspan x="20ch" class="bold fa7">▌</tspan><tspan x="21ch" class="bold fa7"> </tspan><tspan x="22ch" class="fa4">▀</tspan><tspan x="23ch" class="bold fa7"> </tspan><tspan x="24ch" class="bold fa7">▄</tspan><tspan x="25ch" class="bold fa7">█</tspan><tspan x="26ch" class="bold fa7">█</tspan><tspan x="27ch" class="bold fa7">▀</tspan><tspan x="28ch" class="bold fa7"> </tspan><tspan x="29ch" class="fa4">▄</tspan><tspan x="30ch" class="bold fa7"> </tspan><tspan x="31ch" class="bold fa7">▐</tspan><tspan x="32ch" class="bold fa7">█</tspan><tspan x="33ch" class="bold fa7">█</tspan><tspan x="34ch" class="bold fa7"> </tspan><tspan x="35ch" class="fa4">▓</tspan><tspan x="36ch" class="fa4">▓</tspan><tspan x="37ch" class="bold fa7"> </tspan><tspan x="38ch" class="bold fa7">█</tspan><tspan x="39ch" class="bold fa7">█</tspan><tspan x="40ch" class="bold fa7">▌</tspan><tspan x="41ch" class="fa4">▐</tspan><tspan x="42ch" class="fa4">█</tspan><tspan x="43ch" class="fa4">█</tspan><tspan x="44ch" class="fa4">█</tspan></text>
<text x="0ch" y="12.5em"><tspan x="0ch" class="fa4">█</tspan><tspan x="1ch" class="fa4">█</tspan><tspan x="2ch" class="bold fa7"> </tspan><tspan x="3ch" class="bold fa7">█</tspan><tspan x="4ch" class="bold fa7">█</tspan><tspan x="5ch" class="bold fa7">▌</tspan><tspan x="6ch" class="fa4">▒</tspan><tspan x="7ch" class="fa4">▒</tspan><tspan x="8ch" class="fa4">▒</tspan><tspan x="9ch" class="fa4"> </tspan><tspan x="10ch" class="fa4"> </tspan><tspan x="11ch" class="bold fa7">█</tspan><tspan x="12ch" class="bold fa7">█</tspan><tspan x="13ch" class="bold fa7">█</tspan><tspan x="14ch" class="bold fa7">▄</tspan><tspan x="15ch" class="bold fa7">▄</tspan><tspan x="16ch" class="bold fa7">▄</tspan><tspan x="17ch" class="bold fa7">▄</tspan><tspan x="18ch" class="bold fa7">█</tspan><tspan x="19ch" class="bold fa7">█</tspan><tspan x="20ch" class="bold fa7">█</tspan><tspan x="21ch" class="bold fa7"> </tspan><tspan x="22ch" class="bold fa7">▄</tspan><tspan x="23ch" class="bold fa7">█</tspan><tspan x="24ch" class="bold fa7">█</tspan><tspan x="25ch" class="bold fa7">▀</tspan><tspan x="26ch" class="bold fa7"> </tspan><tspan x="27ch" class="bold fa7"> </tspan><tspan x="28ch" class="fa4">▒</tspan><tspan x="29ch" class="fa4">▒</tspan><tspan x="30ch" class="bold fa7"> </tspan><tspan x="31ch" class="bold fa7">█</tspan><tspan x="32ch" class="bold fa7">█</tspan><tspan x="33ch" class="bold fa7">█</tspan><tspan x="34ch" class="bold fa7">▄</tspan><tspan x="35ch" class="bold fa7">▄</tspan><tspan x="36ch" class="bold fa7">▄</tspan><tspan x="37ch" class="bold fa7">▄</tspan><tspan x="38ch" class="bold fa7">█</tspan><tspan x="39ch" class="bold fa7">█</tspan><tspan x="40ch" class="bold fa7">█</tspan><tspan x="41ch"> </tspan><tspan x="42ch" class="fa4">█</tspan><tspan x="43ch" class="fa4">█</tspan><tspan x="44ch" class="fa4">█</tspan></text>
<text x="0ch" y="13.5em"><tspan x="0ch" class="fa4">█</tspan><tspan x="1ch" class="fa4">█</tspan><tspan x="2ch" class="bold fa7"> </tspan><tspan x="3ch" class="bold fa7">█</tspan><tspan x="4ch" class="bold fa7">█</tspan><tspan x="5ch" class="bold fa7">█</tspan><tspan x="6ch" class="bold fa7">█</tspan><tspan x="7ch" class="bold fa7">█</tspan><tspan x="8ch" class="bold fa7">█</tspan><tspan x="9ch" class="bold fa7">█</tspan><tspan x="10ch" class="bold fa7">▐</tspan><tspan x="11ch" class="bold fa7">█</tspan><tspan x="12ch" class="bold fa7">█</tspan><tspan x="13ch" class="bold fa7"> </tspan><tspan x="14ch" class="fa4">▄</tspan><tspan x="15ch" class="fa4">▄</tspan><tspan x="16ch" class="fa4">▄</tspan><tspan x="17ch" class="fa4">▄</tspan><tspan x="18ch" class="bold fa7"> </tspan><tspan x="19ch" class="bold fa7">█</tspan><tspan x="20ch" class="bold fa7">█</tspan><tspan x="21ch" class="bold fa7">▌</tspan><tspan x="22ch" class="bold fa7">█</tspan><tspan x="23ch" class="bold fa7">█</tspan><tspan x="24ch" class="bold fa7">█</tspan><tspan x="25ch" class="bold fa7">█</tspan><tspan x="26ch" class="bold fa7">█</tspan><tspan x="27ch" class="bold fa7">█</tspan><tspan x="28ch" class="bold fa7">█</tspan><tspan x="29ch" class="bold fa7">█</tspan><tspan x="30ch" class="bold fa7">▌</tspan><tspan x="31ch" class="bold fa7">█</tspan><tspan x="32ch" class="bold fa7">█</tspan><tspan x="33ch" class="bold fa7"> </tspan><tspan x="34ch" class="fa4">▄</tspan><tspan x="35ch" class="fa4"> </tspan><tspan x="36ch" class="fa7">▄</tspan><tspan x="37ch" class="fa4">▄</tspan><tspan x="38ch" class="bold fa7"> </tspan><tspan x="39ch" class="bold fa7">█</tspan><tspan x="40ch" class="bold fa7">█</tspan><tspan x="41ch" class="bold fa7">▌</tspan><tspan x="42ch" class="fa4">▐</tspan><tspan x="43ch" class="fa4">█</tspan><tspan x="44ch" class="fa4">█</tspan></text>
<text x="0ch" y="14.5em"><tspan x="0ch" class="fa4">█</tspan><tspan x="1ch" class="fa4">█</tspan><tspan x="2ch" class="fa4">▄</tspan><tspan x="3ch" class="fa4">▄</tspan><tspan x="4ch" class="fa1">▄</tspan><tspan x="5ch" class="fa1">▄</tspan><tspan x="6ch" class="fa1">▄</tspan><tspan x="7ch" class="fa1"> </tspan><tspan x="8ch" class="fa4">▄</tspan><tspan x="9ch" class="fa4">▄</tspan><tspan x="10ch" class="fa4">▄</tspan><tspan x="11ch" class="fa4">▄</tspan><tspan x="12ch" class="fa4">▄</tspan><tspan x="13ch" class="fa4">▄</tspan><tspan x="14ch" class="bold fa7">▄</tspan><tspan x="15ch" class="fa4">█</tspan><tspan x="16ch" class="fa4">█</tspan><tspan x="17ch" class="fa4">█</tspan><tspan x="18ch" class="fa4">▄</tspan><tspan x="19ch" class="fa4">▄</tspan><tspan x="20ch" class="fa4">▄</tspan><tspan x="21ch" class="fa1">▄</tspan><tspan x="22ch" class="fa1"> </tspan><tspan x="23ch" class="fa4">▄</tspan><tspan x="24ch" class="fa4">▄</tspan><tspan x="25ch" class="fa4">▄</tspan><tspan x="26ch" class="fa4">▄</tspan><tspan x="27ch" class="fa4">▄</tspan><tspan x="28ch" class="fa4">▄</tspan><tspan x="29ch" class="fa4">▄</tspan><tspan x="30ch" class="fa4">▄</tspan><tspan x="31ch" class="fa4">▄</tspan><tspan x="32ch" class="fa4">▄</tspan><tspan x="33ch" class="fa4">▄</tspan><tspan x="34ch" class="fa4">▓</tspan><tspan x="35ch" class="bold fa7"> </tspan><tspan x="36ch">▐</tspan><tspan x="37ch" class="bold">▌</tspan><tspan x="38ch" class="fa4">▄</tspan><tspan x="39ch" class="fa4">▄</tspan><tspan x="40ch" class="fa4">▄</tspan><tspan x="41ch" class="fa4">▄</tspan><tspan x="42ch" class="fa4">▄</tspan><tspan x="43ch" class="fa4">█</tspan><tspan x="44ch" class="fa4">█</tspan></text>
<text x="0ch" y="15.5em"><tspan x="0ch" class="fa1">▄</tspan><tspan x="1ch" class="fa1">▄</tspan><tspan x="2ch" class="fa1">█</tspan><tspan x="3ch" class="fa1">█</tspan><tspan x="4ch" class="fa1">▀</tspan><tspan x="5ch" class="fa4">▄</tspan><tspan x="6ch" class="fa4">▄</tspan><tspan x="7ch" class="fa4">█</tspan><tspan x="8ch" class="fa4">█</tspan><tspan x="9ch" class="fa4">█</tspan><tspan x="10ch" class="fa4">█</tspan><tspan x="11ch" class="fa4">█</tspan><tspan x="12ch" class="fa4">█</tspan><tspan x="13ch" class="fa4">█</tspan><tspan x="14ch" class="fa4">█</tspan><tspan x="15ch" class="bold fa7">■</tspan><tspan x="16ch" class="bold fa7">▄</tspan><tspan x="17ch" class="bold fa7">▄</tspan><tspan x="18ch" class="fa1">▄</tspan><tspan x="19ch" class="fa1">█</tspan><tspan x="20ch" class="fa1">▀</tspan><tspan x="21ch" class="fa4">▄</tspan><tspan x="22ch" class="fa4">█</tspan><tspan x="23ch" class="fa4">█</tspan><tspan x="24ch" class="fa4">█</tspan><tspan x="25ch" class="fa4">█</tspan><tspan x="26ch" class="fa4">█</tspan><tspan x="27ch" class="fa4">█</tspan><tspan x="28ch" class="fa4">█</tspan><tspan x="29ch" class="fa4">█</tspan><tspan x="30ch" class="fa4">█</tspan><tspan x="31ch" class="fa4">█</tspan><tspan x="32ch" class="fa4">█</tspan><tspan x="33ch" class="fa4">█</tspan><tspan x="34ch" class="fa4">█</tspan><tspan x="35ch" class="bold fa7"> </tspan><tspan x="36ch" class="bold fa7"> </tspan><tspan x="37ch" class="bold fa7">█</tspan><tspan x="38ch" class="fa4">█</tspan><tspan x="39ch" class="bold fa7">▄</tspan><tspan x="40ch" class="fa4">█</tspan><tspan x="41ch" class="fa4">█</tspan><tspan x="42ch" class="fa4">█</tspan><tspan x="43ch" class="fa4">█</tspan><tspan x="44ch" class="fa4">█</tspan></text>
<text x="0ch" y="16.5em"><tspan x="0ch" class="fa1">▀</tspan><tspan x="1ch" class="fa1">▀</tspan><tspan x="2ch" class="fa4">▄</tspan><tspan x="3ch" class="fa4">▄</tspan><tspan x="4ch" class="fa4">█</tspan><tspan x="5ch" class="fa4">█</tspan><tspan x="6ch" class="fa4">█</tspan><tspan x="7ch" class="fa4">█</tspan><tspan x="8ch" class="fa4">█</tspan><tspan x="9ch" class="fa4">█</tspan><tspan x="10ch" class="fa4">█</tspan><tspan x="11ch" class="fa4">█</tspan><tspan x="12ch" class="fa4">█</tspan><tspan x="13ch" class="fa4">█</tspan><tspan x="14ch" class="fa4">█</tspan><tspan x="15ch" class="fa4">█</tspan><tspan x="16ch" class="fa1">▄</tspan><tspan x="17ch" class="bold fa7">▀</tspan><tspan x="18ch" class="bold fa7">█</tspan><tspan x="19ch" class="bold fa7">▄</tspan><tspan x="20ch" class="bold fa7">▄</tspan><tspan x="21ch" class="fa4">█</tspan><tspan x="22ch" class="fa4">█</tspan><tspan x="23ch" class="fa4">█</tspan><tspan x="24ch" class="fa4">█</tspan><tspan x="25ch" class="fa4">█</tspan><tspan x="26ch" class="fa4">█</tspan><tspan x="27ch" class="fa4">█</tspan><tspan x="28ch" class="fa4">█</tspan><tspan x="29ch" class="fa4">█</tspan><tspan x="30ch" class="fa4">█</tspan><tspan x="31ch" class="fa4">█</tspan><tspan x="32ch" class="fa4">█</tspan><tspan x="33ch" class="fa4">█</tspan><tspan x="34ch" class="bold fa7">▄</tspan><tspan x="35ch" class="fa4">█</tspan><tspan x="36ch" class="bold fa7"> </tspan><tspan x="37ch" class="bold fa7">█</tspan><tspan x="38ch" class="fa4">█</tspan><tspan x="39ch" class="fa4">█</tspan><tspan x="40ch" class="fa4">█</tspan><tspan x="41ch" class="bold fa7">▒</tspan><tspan x="42ch" class="fa4">█</tspan><tspan x="43ch" class="fa4">█</tspan><tspan x="44ch" class="fa4">▌</tspan></text>
<text x="0ch" y="17.5em"><tspan x="0ch" class="bold fa7"> </tspan><tspan x="1ch" class="fa4">▀</tspan><tspan x="2ch" class="fa4">█</tspan><tspan x="3ch" class="fa4">█</tspan><tspan x="4ch" class="fa4">█</tspan><tspan x="5ch" class="fa7">■</tspan><tspan x="6ch" class="fa7"> </tspan><tspan x="7ch" class="bold fa7">▀</tspan><tspan x="8ch" class="fa4">█</tspan><tspan x="9ch" class="fa4">█</tspan><tspan x="10ch" class="fa4">█</tspan><tspan x="11ch" class="fa4">█</tspan><tspan x="12ch" class="fa4">█</tspan><tspan x="13ch" class="fa1"> </tspan><tspan x="14ch" class="fa1">▄</tspan><tspan x="15ch" class="fa1">█</tspan><tspan x="16ch" class="fa1">▀</tspan><tspan x="17ch" class="fa4">▄</tspan><tspan x="18ch" class="fa4">█</tspan><tspan x="19ch" class="bold fa7">▀</tspan><tspan x="20ch" class="bold fa7">█</tspan><tspan x="21ch" class="bold fa7">▌</tspan><tspan x="22ch" class="bold fa7"> </tspan><tspan x="23ch" class="fa4">█</tspan><tspan x="24ch" class="fa4">█</tspan><tspan x="25ch" class="fa4">█</tspan><tspan x="26ch" class="fa4">█</tspan><tspan x="27ch" class="fa4">█</tspan><tspan x="28ch" class="fa4">█</tspan><tspan x="29ch" class="fa4">█</tspan><tspan x="30ch" class="fa4">█</tspan><tspan x="31ch" class="fa4">█</tspan><tspan x="32ch" class="bold fa7"> </tspan><tspan x="33ch" class="fa4">█</tspan><tspan x="34ch" class="bold fa7">■</tspan><tspan x="35ch" class="fa4">█</tspan><tspan x="36ch" class="bold fa7">▐</tspan><tspan x="37ch" class="bold fa7">▌</tspan><tspan x="38ch" class="fa4">█</tspan><tspan x="39ch" class="fa4">█</tspan><tspan x="40ch" class="bold fa7">▄</tspan><tspan x="41ch" class="fa4">█</tspan><tspan x="42ch" class="fa4">█</tspan><tspan x="43ch" class="fa4">▀</tspan></text>
<text x="0ch" y="18.5em"><tspan x="0ch" class="fa7">▓</tspan><tspan x="1ch" class="fa7">▄</tspan><tspan x="2ch" class="fa7"> </tspan><tspan x="3ch" class="fa4">▀</tspan><tspan x="4ch" class="fa4">█</tspan><tspan x="5ch" class="fa4">█</tspan><tspan x="6ch" class="fa4">█</tspan><tspan x="7ch" class="bold fa7">▄</tspan><tspan x="8ch" class="fa4">▀</tspan><tspan x="9ch" class="fa4">█</tspan><tspan x="10ch" class="bold fa7">■</tspan><tspan x="11ch" class="fa4">█</tspan><tspan x="12ch" class="fa1">▄</tspan><tspan x="13ch" class="fa1">█</tspan><tspan x="14ch" class="fa1">▀</tspan><tspan x="15ch" class="fa4">▄</tspan><tspan x="16ch" class="fa4">█</tspan><tspan x="17ch" class="fa4">█</tspan><tspan x="18ch" class="fa4">█</tspan><tspan x="19ch" class="fa4">█</tspan><tspan x="20ch" class="fa4">█</tspan><tspan x="21ch" class="fa4">█</tspan><tspan x="22ch" class="fa4">█</tspan><tspan x="23ch" class="bold fa7"> </tspan><tspan x="24ch" class="bold fa7"> </tspan><tspan x="25ch" class="bold fa7"> </tspan><tspan x="26ch" class="bold fa7">▄</tspan><tspan x="27ch" class="bold fa7">▄</tspan><tspan x="28ch" class="bold fa7"> </tspan><tspan x="29ch" class="fa4">█</tspan><tspan x="30ch" class="fa4">█</tspan><tspan x="31ch" class="fa4">█</tspan><tspan x="32ch" class="fa4">█</tspan><tspan x="33ch" class="bold fa7"> </tspan><tspan x="34ch" class="bold fa7"> </tspan><tspan x="35ch" class="bold fa7">▄</tspan><tspan x="36ch" class="bold fa7">▀</tspan><tspan x="37ch" class="bold fa7"> </tspan><tspan x="38ch" class="fa4">█</tspan><tspan x="39ch" class="fa4">█</tspan><tspan x="40ch" class="fa4">█</tspan><tspan x="41ch" class="fa4">▀</tspan><tspan x="42ch" class="fa7"> </tspan><tspan x="43ch" class="fa7">▄</tspan><tspan x="44ch" class="fa7">▓</tspan></text>
<text x="0ch" y="19.5em"><tspan x="0ch" class="bold fa7"> </tspan><tspan x="1ch" class="bold fa7">▀</tspan><tspan x="2ch" class="bold fa7">▄</tspan><tspan x="3ch">▄</tspan><tspan x="4ch"> </tspan><tspan x="5ch" class="fa4">▀</tspan><tspan x="6ch" class="fa4">█</tspan><tspan x="7ch" class="fa4">█</tspan><tspan x="8ch" class="fa4">█</tspan><tspan x="9ch" class="fa4">█</tspan><tspan x="10ch" class="fa1">▄</tspan><tspan x="11ch" class="fa1">█</tspan><tspan x="12ch" class="fa1">▀</tspan><tspan x="13ch" class="fa4">▄</tspan><tspan x="14ch" class="fa4">█</tspan><tspan x="15ch" class="fa4">█</tspan><tspan x="16ch" class="fa4">█</tspan><tspan x="17ch" class="fa4">▓</tspan><tspan x="18ch" class="fa4">▓</tspan><tspan x="19ch" class="fa4">▓</tspan><tspan x="20ch" class="fa4">▓</tspan><tspan x="21ch" class="fa4">▓</tspan><tspan x="22ch" class="fa4">▓</tspan><tspan x="23ch" class="fa4">▓</tspan><tspan x="24ch" class="fa4">▓</tspan><tspan x="25ch" class="fa4">▓</tspan><tspan x="26ch" class="fa4">▓</tspan><tspan x="27ch" class="bold fa7"> </tspan><tspan x="28ch" class="bold fa7">▀</tspan><tspan x="29ch" class="bold fa7">▀</tspan><tspan x="30ch" class="bold fa7">▀</tspan><tspan x="31ch" class="bold fa7">▀</tspan><tspan x="32ch" class="bold fa7">▀</tspan><tspan x="33ch" class="bold fa7">▀</tspan><tspan x="34ch" class="bold fa7">▀</tspan><tspan x="35ch" class="bold fa7"> </tspan><tspan x="36ch">▄</tspan><tspan x="37ch" class="fa4">█</tspan><tspan x="38ch" class="fa4">█</tspan><tspan x="39ch" class="fa4">▀</tspan><tspan x="40ch" class="fa7"> </tspan><tspan x="41ch" class="fa7">▄</tspan><tspan x="42ch" class="bold fa7">▄</tspan><tspan x="43ch" class="bold fa7">▀</tspan></text>
<text x="0ch" y="20.5em"><tspan x="0ch" class="bold"> </tspan><tspan x="1ch" class="bold"> </tspan><tspan x="2ch">▀</tspan><tspan x="3ch" class="bold">▀</tspan><tspan x="4ch" class="bold">▄</tspan><tspan x="5ch">▄</tspan><tspan x="6ch"> </tspan><tspan x="7ch" class="fa4">▀</tspan><tspan x="8ch" class="fa1">▐</tspan><tspan x="9ch" class="fa1">█</tspan><tspan x="10ch" class="fa1">▀</tspan><tspan x="11ch" class="fa4">▄</tspan><tspan x="12ch" class="fa7">L</tspan><tspan x="13ch" class="fa7">A</tspan><tspan x="14ch" class="fa7">Z</tspan><tspan x="15ch" class="fa7">A</tspan><tspan x="16ch" class="fa7">R</tspan><tspan x="17ch" class="fa7">U</tspan><tspan x="18ch" class="fa7">S</tspan><tspan x="19ch" class="fa7"> </tspan><tspan x="20ch" class="fa7">A</tspan><tspan x="21ch" class="fa7">N</tspan><tspan x="22ch" class="fa7">S</tspan><tspan x="23ch" class="fa7">I</tspan><tspan x="24ch" class="fa7"> </tspan><tspan x="25ch" class="fa7">&amp;</tspan><tspan x="26ch" class="fa7"> </tspan><tspan x="27ch" class="fa7">Z</tspan><tspan x="28ch" class="fa7">O</tspan><tspan x="29ch" class="fa7">D</tspan><tspan x="30ch" class="fa7">I</tspan><tspan x="31ch" class="fa7">A</tspan><tspan x="32ch" class="fa7">C</tspan><tspan x="33ch" class="fa4">█</tspan><tspan x="34ch" class="fa4">█</tspan><tspan x="35ch" class="fa4">█</tspan><tspan x="36ch" class="fa4">█</tspan><tspan x="37ch" class="fa4">▀</tspan><tspan x="38ch" class="fa7"> </tspan><tspan x="39ch" class="fa7">▄</tspan><tspan x="40ch" class="bold fa7">▄</tspan><tspan x="41ch" class="bold fa7">▀</tspan><tspan x="42ch">▀</tspan></text>
<text x="0ch" y="21.5em"><tspan x="0ch"> </tspan><tspan x="1ch"> </tspan><tspan x="2ch"> </tspan><tspan x="3ch"> </tspan><tspan x="4ch">▀</tspan><tspan x="5ch" class="bold">▀</tspan><tspan x="6ch" class="bold">▄</tspan><tspan x="7ch" class="bold">▄</tspan><tspan x="8ch">▄</tspan><tspan x="9ch"> </tspan><tspan x="10ch"> </tspan><tspan x="11ch" class="fa4">▀</tspan><tspan x="12ch" class="fa4">█</tspan><tspan x="13ch" class="fa4">█</tspan><tspan x="14ch" class="fa4">█</tspan><tspan x="15ch" class="fa0"> </tspan><tspan x="16ch" class="fa7">A</tspan><tspan x="17ch" class="fa7">D</tspan><tspan x="18ch" class="fa7">M</tspan><tspan x="19ch" class="fa7">I</tspan><tspan x="20ch" class="fa7">N</tspan><tspan x="21ch" class="fa7">I</tspan><tspan x="22ch" class="fa7">S</tspan><tspan x="23ch" class="fa7">T</tspan><tspan x="24ch" class="fa7">R</tspan><tspan x="25ch" class="fa7">A</tspan><tspan x="26ch" class="fa7">T</tspan><tspan x="27ch" class="fa7">I</tspan><tspan x="28ch" class="fa7">O</tspan><tspan x="29ch" class="fa7">N</tspan><tspan x="30ch" class="fa7"> </tspan><tspan x="31ch" class="fa4">█</tspan><tspan x="32ch" class="fa4">█</tspan><tspan x="33ch" class="fa4">▀</tspan><tspan x="34ch" class="fa4">▀</tspan><tspan x="35ch" class="fa7"> </tspan><tspan x="36ch" class="fa7">▄</tspan><tspan x="37ch" class="bold fa7">▄</tspan><tspan x="38ch" class="bold fa7">▄</tspan><tspan x="39ch" class="bold fa7">▀</tspan><tspan x="40ch">▀</tspan></text>
<text x="0ch" y="22.5em"><tspan x="0ch"> </tspan><tspan x="1ch"> </tspan><tspan x="2ch"> </tspan><tspan x="3ch"> </tspan><tspan x="4ch" class="fa0">█</tspan><tspan x="5ch" class="bold fa7"> </tspan><tspan x="6ch">▀</tspan><tspan x="7ch">▀</tspan><tspan x="8ch" class="bold">▀</tspan><tspan x="9ch" class="bold">■</tspan><tspan x="10ch" class="bold">▒</tspan><tspan x="11ch">▄</tspan><tspan x="12ch" class="bold fa0">▄</tspan><tspan x="13ch"> </tspan><tspan x="14ch" class="fa4">▀</tspan><tspan x="15ch" class="fa4">▀</tspan><tspan x="16ch" class="fa4">▀</tspan><tspan x="17ch" class="fa4">▓</tspan><tspan x="18ch" class="fa4">▓</tspan><tspan x="19ch" class="fa4">▓</tspan><tspan x="20ch" class="fa0">x</tspan><tspan x="21ch" class="fa0">i</tspan><tspan x="22ch" class="fa0">x</tspan><tspan x="23ch" class="fa4">▓</tspan><tspan x="24ch" class="fa4">▓</tspan><tspan x="25ch" class="fa4">▓</tspan><tspan x="26ch" class="fa4">▓</tspan><tspan x="27ch" class="fa4">▀</tspan><tspan x="28ch" class="fa4">▀</tspan><tspan x="29ch" class="fa4">▀</tspan><tspan x="30ch" class="fa7"> </tspan><tspan x="31ch" class="fa7"> </tspan><tspan x="32ch" class="fa7">▄</tspan><tspan x="33ch" class="fa7">▄</tspan><tspan x="34ch" class="bold fa7">▒</tspan><tspan x="35ch" class="bold fa7">■</tspan><tspan x="36ch" class="bold fa7">▀</tspan><tspan x="37ch">▀</tspan><tspan x="38ch">▀</tspan><tspan x="39ch" class="bold"> </tspan><tspan x="40ch" class="fa0">█</tspan></text>
</svg>
